<svg aria-hidden="true" style="position: absolute; width: 0; height: 0; overflow: hidden;" version="1.1" xmlns="http://www.w3.org/2000/svg" xmlns:xlink="http://www.w3.org/1999/xlink">
<defs>
<symbol id="icon-mail" viewBox="0 0 32 32">
<path d="M29 4h-26c-1.65 0-3 1.35-3 3v20c0 1.65 1.35 3 3 3h26c1.65 0 3-1.35 3-3v-20c0-1.65-1.35-3-3-3zM12.461 17.199l-8.461 6.59v-15.676l8.461 9.086zM5.512 8h20.976l-10.488 7.875-10.488-7.875zM12.79 17.553l3.21 3.447 3.21-3.447 6.58 8.447h-19.579l6.58-8.447zM19.539 17.199l8.461-9.086v15.676l-8.461-6.59z"></path>
</symbol>
<symbol id="icon-facebook" viewBox="0 0 32 32">
<path d="M21.33 5.313h2.921v-5.088c-0.504-0.069-2.237-0.225-4.256-0.225-4.212 0-7.097 2.649-7.097 7.519v4.481h-4.648v5.688h4.648v14.312h5.699v-14.311h4.46l0.708-5.688h-5.169v-3.919c0.001-1.644 0.444-2.769 2.735-2.769z"></path>
</symbol>
<symbol id="icon-instagram" viewBox="0 0 32 32">
<path d="M31.969 9.408c-0.075-1.7-0.35-2.869-0.744-3.882-0.406-1.075-1.032-2.038-1.851-2.838-0.8-0.813-1.769-1.444-2.832-1.844-1.019-0.394-2.182-0.669-3.882-0.744-1.713-0.081-2.257-0.1-6.601-0.1s-4.888 0.019-6.595 0.094c-1.7 0.075-2.869 0.35-3.882 0.744-1.075 0.406-2.038 1.031-2.838 1.85-0.813 0.8-1.444 1.769-1.844 2.832-0.394 1.019-0.669 2.182-0.744 3.882-0.081 1.713-0.1 2.257-0.1 6.601s0.019 4.888 0.094 6.595c0.075 1.7 0.35 2.869 0.744 3.882 0.406 1.075 1.038 2.038 1.85 2.838 0.8 0.813 1.769 1.444 2.832 1.844 1.019 0.394 2.182 0.669 3.882 0.744 1.706 0.075 2.25 0.094 6.595 0.094s4.888-0.019 6.595-0.094c1.7-0.075 2.869-0.35 3.882-0.744 2.151-0.832 3.851-2.532 4.682-4.682 0.394-1.019 0.669-2.182 0.744-3.882 0.075-1.707 0.094-2.251 0.094-6.595s-0.006-4.888-0.081-6.595zM29.087 22.473c-0.069 1.563-0.331 2.407-0.55 2.969-0.538 1.394-1.644 2.5-3.038 3.038-0.563 0.219-1.413 0.481-2.969 0.55-1.688 0.075-2.194 0.094-6.464 0.094s-4.782-0.019-6.464-0.094c-1.563-0.069-2.407-0.331-2.969-0.55-0.694-0.256-1.325-0.663-1.838-1.194-0.531-0.519-0.938-1.144-1.194-1.838-0.219-0.563-0.481-1.413-0.55-2.969-0.075-1.688-0.094-2.194-0.094-6.464s0.019-4.782 0.094-6.464c0.069-1.563 0.331-2.407 0.55-2.969 0.256-0.694 0.663-1.325 1.2-1.838 0.519-0.531 1.144-0.938 1.838-1.194 0.563-0.219 1.413-0.481 2.969-0.55 1.688-0.075 2.194-0.094 6.464-0.094 4.276 0 4.782 0.019 6.464 0.094 1.563 0.069 2.407 0.331 2.969 0.55 0.694 0.256 1.325 0.662 1.838 1.194 0.531 0.519 0.938 1.144 1.194 1.838 0.219 0.563 0.481 1.413 0.55 2.969 0.075 1.688 0.094 2.194 0.094 6.464s-0.019 4.77-0.094 6.458z"></path>
<path d="M16.059 7.783c-4.538 0-8.22 3.682-8.22 8.22s3.682 8.22 8.22 8.22c4.539 0 8.22-3.682 8.22-8.22s-3.682-8.22-8.22-8.22zM16.059 21.335c-2.944 0-5.332-2.388-5.332-5.332s2.388-5.332 5.332-5.332c2.944 0 5.332 2.388 5.332 5.332s-2.388 5.332-5.332 5.332z"></path>
<path d="M26.524 7.458c0 1.060-0.859 1.919-1.919 1.919s-1.919-0.859-1.919-1.919c0-1.060 0.859-1.919 1.919-1.919s1.919 0.859 1.919 1.919z"></path>
</symbol>
<symbol id="icon-linkedin" viewBox="0 0 32 32">
<path d="M31.992 32v-0.001h0.008v-11.736c0-5.741-1.236-10.164-7.948-10.164-3.227 0-5.392 1.771-6.276 3.449h-0.093v-2.913h-6.364v21.364h6.627v-10.579c0-2.785 0.528-5.479 3.977-5.479 3.399 0 3.449 3.179 3.449 5.657v10.401h6.62z"></path>
<path d="M0.528 10.636h6.635v21.364h-6.635v-21.364z"></path>
<path d="M3.843 0c-2.121 0-3.843 1.721-3.843 3.843s1.721 3.879 3.843 3.879c2.121 0 3.843-1.757 3.843-3.879-0.001-2.121-1.723-3.843-3.843-3.843v0z"></path>
</symbol>
<symbol id="icon-location" viewBox="0 0 32 32">
<path d="M16 0c-5.523 0-10 4.477-10 10 0 10 10 22 10 22s10-12 10-22c0-5.523-4.477-10-10-10zM16 16.125c-3.383 0-6.125-2.742-6.125-6.125s2.742-6.125 6.125-6.125 6.125 2.742 6.125 6.125-2.742 6.125-6.125 6.125zM12.125 10c0-2.14 1.735-3.875 3.875-3.875s3.875 1.735 3.875 3.875c0 2.14-1.735 3.875-3.875 3.875s-3.875-1.735-3.875-3.875z"></path>
</symbol>
<symbol id="icon-phone" viewBox="0 0 32 32">
<path d="M22 20c-2 2-2 4-4 4s-4-2-6-4-4-4-4-6 2-2 4-4-4-8-6-8-6 6-6 6c0 4 4.109 12.109 8 16s12 8 16 8c0 0 6-4 6-6s-6-8-8-6z"></path>
</symbol>
<symbol id="icon-fly" viewBox="0 0 45 32">
<path d="M0.349 0.589c0.001-0.010 0.002-0.019 0.004-0.029s0.004-0.020 0.006-0.030c0.002-0.008 0.003-0.017 0.006-0.025 0.003-0.012 0.006-0.023 0.010-0.034 0.002-0.005 0.003-0.010 0.005-0.016 0-0.002 0.001-0.003 0.002-0.005 0.005-0.013 0.009-0.025 0.014-0.037 0.002-0.006 0.004-0.012 0.007-0.018 0.005-0.012 0.011-0.023 0.017-0.034 0.003-0.006 0.006-0.013 0.009-0.018 0.004-0.008 0.010-0.016 0.015-0.024 0.011-0.018 0.023-0.035 0.035-0.051 0.005-0.007 0.011-0.014 0.017-0.021 0.007-0.009 0.015-0.018 0.023-0.026 0.005-0.005 0.009-0.011 0.014-0.016 0.003-0.003 0.006-0.005 0.008-0.008 0.007-0.006 0.014-0.013 0.021-0.019 0.014-0.013 0.028-0.025 0.043-0.036 0.008-0.006 0.016-0.012 0.025-0.019s0.016-0.011 0.025-0.016c0.010-0.006 0.021-0.012 0.031-0.018 0.007-0.004 0.014-0.008 0.021-0.011 0.018-0.009 0.036-0.018 0.054-0.025 0.003-0.001 0.006-0.003 0.009-0.004 0.014-0.005 0.027-0.009 0.041-0.013 0.004-0.001 0.008-0.003 0.012-0.004 0.013-0.004 0.026-0.007 0.039-0.009 0.005-0.001 0.010-0.002 0.015-0.003 0.012-0.002 0.024-0.004 0.037-0.005 0.007-0.001 0.013-0.002 0.020-0.003 0.011-0.001 0.022-0.001 0.033-0.002 0.008-0 0.017-0.001 0.025-0.001 0.010 0 0.019 0 0.029 0s0.020 0 0.030 0.002c0.008 0.001 0.016 0.001 0.025 0.002 0.011 0.001 0.023 0.003 0.034 0.005 0.003 0 0.007 0.001 0.010 0.001l42.808 8.080c0.24 0.046 0.435 0.222 0.505 0.457s0.002 0.49-0.175 0.66l-8.863 8.499 0.909 11.78c0.001 0.012 0.001 0.024 0.001 0.035-0 0.007 0.001 0.013 0.001 0.020-0 0.020-0.001 0.040-0.003 0.059v0.001c-0.002 0.020-0.005 0.040-0.009 0.059-0.001 0.007-0.003 0.014-0.005 0.021-0.003 0.012-0.005 0.025-0.009 0.037-0.003 0.009-0.005 0.017-0.008 0.026-0.004 0.010-0.007 0.021-0.011 0.031-0.004 0.009-0.007 0.017-0.011 0.026-0.004 0.010-0.009 0.020-0.014 0.030-0.004 0.008-0.008 0.016-0.013 0.024-0.006 0.010-0.012 0.021-0.019 0.031-0.004 0.007-0.008 0.013-0.013 0.020-0.009 0.013-0.019 0.026-0.030 0.039-0.002 0.003-0.004 0.006-0.006 0.008 0 0-0.001 0.001-0.001 0.001-0.015 0.018-0.030 0.034-0.046 0.050-0.005 0.005-0.010 0.009-0.015 0.013-0.012 0.011-0.024 0.021-0.036 0.031-0.006 0.005-0.012 0.010-0.018 0.014-0.013 0.010-0.027 0.019-0.041 0.027-0.005 0.003-0.010 0.006-0.014 0.009-0.018 0.011-0.037 0.021-0.056 0.030-0.007 0.003-0.014 0.006-0.021 0.009-0.013 0.006-0.026 0.011-0.039 0.015-0.008 0.003-0.017 0.006-0.025 0.008-0.006 0.002-0.012 0.004-0.018 0.006-0.010 0.003-0.019 0.005-0.029 0.007-0.004 0.001-0.007 0.002-0.011 0.002-0.020 0.004-0.041 0.007-0.062 0.009-0.004 0-0.008 0.001-0.012 0.001-0.021 0.002-0.043 0.003-0.064 0.003-0.017-0-0.034-0.001-0.050-0.003-0.005-0-0.010-0.001-0.016-0.002-0.011-0.001-0.022-0.003-0.033-0.005-0.007-0.001-0.014-0.002-0.021-0.004-0.009-0.002-0.018-0.004-0.027-0.006-0.008-0.002-0.016-0.004-0.023-0.006s-0.016-0.005-0.024-0.008c-0.008-0.003-0.016-0.005-0.024-0.008-0.014-0.005-0.028-0.011-0.042-0.018-0.007-0.003-0.013-0.007-0.020-0.010-0.009-0.005-0.017-0.009-0.026-0.013-0.006-0.004-0.012-0.007-0.019-0.011-0.010-0.006-0.019-0.012-0.028-0.017-0.005-0.003-0.010-0.007-0.015-0.010-0.013-0.009-0.025-0.019-0.038-0.029-0.001-0.001-0.002-0.001-0.003-0.002l-0.001-0.001-0.002-0.002-6.592-5.495-6.694 6.615c-0.124 0.123-0.292 0.19-0.465 0.188-0.018-0-0.037-0.001-0.055-0.003-0.192-0.019-0.366-0.122-0.475-0.282l-20.489-30.037c-0.002-0.003-0.003-0.005-0.005-0.008-0.006-0.008-0.011-0.017-0.016-0.025s-0.010-0.016-0.015-0.025c-0.004-0.008-0.008-0.016-0.012-0.024-0.005-0.010-0.009-0.019-0.013-0.029-0.003-0.007-0.006-0.015-0.009-0.022-0.004-0.010-0.008-0.021-0.011-0.031-0.003-0.007-0.005-0.015-0.007-0.023-0.003-0.011-0.006-0.021-0.008-0.032-0.002-0.008-0.004-0.017-0.005-0.025-0.002-0.010-0.004-0.020-0.005-0.030s-0.002-0.018-0.004-0.028c-0.001-0.009-0.002-0.019-0.002-0.028s-0.001-0.020-0.001-0.030c0-0.009 0-0.018 0-0.027 0-0.010 0.001-0.020 0.001-0.030s0.002-0.018 0.002-0.027l-0.003 0.002zM5.006 5.381l16.577 24.302 8.835-8.73-27-17.902 1.589 2.329zM33.751 27.112l-2.487-5.157-1.693 1.673 4.18 3.484zM28.409 6.502l-22.893-4.321 29.081 14.483 7.837-7.514-14.025-2.647zM31.809 20.306c0.096 0.064 0.172 0.151 0.222 0.252 0.019 0.028 0.038 0.057 0.053 0.089l2.648 5.493-0.638-8.264-23.91-11.908 21.624 14.337z"></path>
</symbol>
<symbol id="icon-gift" viewBox="0 0 32 32">
<path d="M24.11 10c0.566-0.402 1.11-0.851 1.608-1.348 1.044-1.044 1.742-2.328 1.966-3.616 0.246-1.412-0.115-2.723-0.988-3.597-0.697-0.697-1.641-1.065-2.73-1.065-1.551 0-3.185 0.744-4.483 2.043-2.077 2.077-3.288 4.945-3.94 6.991-0.482-2.056-1.444-4.833-3.313-6.702-1.003-1.003-2.285-1.518-3.495-1.518-0.989 0-1.931 0.344-2.633 1.046-1.562 1.562-1.351 4.306 0.471 6.128 0.65 0.65 1.409 1.189 2.21 1.638h-6.782v8h2v14h24v-14h2v-8h-5.89zM21.073 4.007c0.866-0.866 1.948-1.384 2.892-1.384 0.334 0 0.803 0.070 1.139 0.406 0.813 0.813 0.357 2.697-0.977 4.031-1.373 1.373-3.221 2.318-4.826 2.939h-1.584c0.58-1.798 1.627-4.264 3.356-5.993zM7.31 5.028c-0.022-0.285-0.002-0.82 0.381-1.203 0.32-0.32 0.743-0.387 1.042-0.387v0c0.664 0 1.358 0.313 1.904 0.859 1.059 1.058 1.93 2.743 2.521 4.871 0.016 0.057 0.031 0.115 0.047 0.171-0.057-0.015-0.114-0.031-0.171-0.047-2.128-0.591-3.813-1.462-4.871-2.521-0.495-0.495-0.805-1.13-0.853-1.743zM14 30h-8v-13h8v13zM14 16h-10v-4h10v4zM26 30h-8v-13h8v13zM28 16h-10v-4h10v4z"></path>
</symbol>
<symbol id="icon-close-modal" viewBox="0 0 32 32">
<path d="M32 3.223l-3.223-3.223-12.777 12.777-12.777-12.777-3.223 3.223 12.777 12.777-12.777 12.777 3.223 3.223 12.777-12.777 12.777 12.777 3.223-3.223-12.777-12.777 12.777-12.777z"></path>
</symbol>
<symbol id="icon-modal-email" viewBox="0 0 24 32">
<path d="M20 8h-16c-1.1 0-1.99 0.9-1.99 2l-0.010 12c0 1.1 0.9 2 2 2h16c1.1 0 2-0.9 2-2v-12c0-1.1-0.9-2-2-2zM19.6 12.25l-7.070 4.42c-0.32 0.2-0.74 0.2-1.060 0l-7.070-4.42c-0.25-0.16-0.4-0.43-0.4-0.72 0-0.67 0.73-1.070 1.3-0.72l6.7 4.19 6.7-4.19c0.57-0.35 1.3 0.050 1.3 0.72 0 0.29-0.15 0.56-0.4 0.72z"></path>
</symbol>
<symbol id="icon-modal-name" viewBox="0 0 32 32">
<path d="M16 16c2.947 0 5.333-2.387 5.333-5.333s-2.387-5.333-5.333-5.333c-2.947 0-5.333 2.387-5.333 5.333s2.387 5.333 5.333 5.333zM16 18.667c-3.56 0-10.667 1.787-10.667 5.333v1.333c0 0.733 0.6 1.333 1.333 1.333h18.667c0.733 0 1.333-0.6 1.333-1.333v-1.333c0-3.547-7.107-5.333-10.667-5.333z"></path>
</symbol>
<symbol id="icon-modal-tel" viewBox="0 0 24 32">
<path d="M19.635 18.487l-2.451-0.28c-0.589-0.067-1.167 0.135-1.582 0.55l-1.775 1.775c-2.731-1.389-4.969-3.618-6.359-6.359l1.785-1.785c0.415-0.415 0.618-0.994 0.55-1.582l-0.28-2.432c-0.116-0.975-0.936-1.708-1.92-1.708h-1.669c-1.090 0-1.997 0.907-1.93 1.997 0.511 8.24 7.102 14.821 15.332 15.332 1.090 0.068 1.997-0.839 1.997-1.93v-1.669c0.010-0.975-0.724-1.795-1.698-1.911z"></path>
</symbol>
<symbol id="icon-burger" viewBox="0 0 47 32">
<path d="M2.182 0h42.182c1.205 0 2.182 0.977 2.182 2.182s-0.977 2.182-2.182 2.182h-42.182c-1.205 0-2.182-0.977-2.182-2.182s0.977-2.182 2.182-2.182z"></path>
<path d="M2.182 26.182h42.182c1.205 0 2.182 0.977 2.182 2.182s-0.977 2.182-2.182 2.182h-42.182c-1.205 0-2.182-0.977-2.182-2.182s0.977-2.182 2.182-2.182z"></path>
<path d="M2.182 13.091h42.182c1.205 0 2.182 0.977 2.182 2.182s-0.977 2.182-2.182 2.182h-42.182c-1.205 0-2.182-0.977-2.182-2.182s0.977-2.182 2.182-2.182z"></path>
</symbol>
</defs>
</svg>
